<svg xmlns="http://www.w3.org/2000/svg" xmlns:xlink="http://www.w3.org/1999/xlink" version="1.1" x="0px" y="0px" viewBox="0 0 100 125" enable-background="new 0 0 100 100" xml:space="preserve"><circle cx="30" cy="20" r="3"/><circle cx="40" cy="20" r="3"/><circle cx="60" cy="20" r="3"/><circle cx="70" cy="20" r="3"/><circle cx="30" cy="30" r="3"/><circle cx="40" cy="30" r="3"/><circle cx="60" cy="30" r="3"/><circle cx="70" cy="30" r="3"/><circle cx="30" cy="40" r="3"/><circle cx="40" cy="40" r="3"/><circle cx="60" cy="40" r="3"/><circle cx="70" cy="40" r="3"/><circle cx="30" cy="50" r="3"/><circle cx="40" cy="50" r="3"/><circle cx="60" cy="50" r="3"/><circle cx="70" cy="50" r="3"/><circle cx="30" cy="60" r="3"/><circle cx="40" cy="60" r="3"/><circle cx="60" cy="60" r="3"/><circle cx="70" cy="60" r="3"/><circle cx="30" cy="70" r="3"/><circle cx="40" cy="70" r="3"/><circle cx="60" cy="70" r="3"/><circle cx="70" cy="70" r="3"/><circle cx="30" cy="80" r="3"/><circle cx="40" cy="80" r="3"/><circle cx="60" cy="80" r="3"/><circle cx="70" cy="80" r="3"/><text x="0" y="115" fill="#000000" font-size="5px" font-weight="bold" font-family="'Helvetica Neue', Helvetica, Arial-Unicode, Arial, Sans-serif">Created by Diogo Trindade</text><text x="0" y="120" fill="#000000" font-size="5px" font-weight="bold" font-family="'Helvetica Neue', Helvetica, Arial-Unicode, Arial, Sans-serif">from the Noun Project</text></svg>