<svg xmlns="http://www.w3.org/2000/svg" xmlns:xlink="http://www.w3.org/1999/xlink" version="1.1" x="0px" y="0px" viewBox="0 0 100 125" enable-background="new 0 0 100 100" xml:space="preserve"><g><path d="M69.383,64.324c-4.732,0-9,2.004-12.027,5.195L44.512,59.027c1.695-2.602,2.691-5.7,2.691-9.027   c0-3.401-1.029-6.562-2.793-9.197l13.082-10.177c3.014,3.107,7.232,5.05,11.891,5.05c9.15,0,16.59-7.44,16.59-16.588   S78.533,2.5,69.383,2.5c-9.143,0-16.586,7.44-16.586,16.588c0,3.401,1.029,6.562,2.793,9.197L42.508,38.462   c-3.018-3.107-7.232-5.05-11.891-5.05c-9.146,0-16.59,7.44-16.59,16.588s7.443,16.588,16.59,16.588c4.732,0,9-2.004,12.027-5.195   l12.844,10.496c-1.695,2.598-2.691,5.696-2.691,9.023c0,9.147,7.443,16.588,16.586,16.588c9.15,0,16.59-7.44,16.59-16.588   S78.533,64.324,69.383,64.324z"/></g><text x="0" y="115" fill="#000000" font-size="5px" font-weight="bold" font-family="'Helvetica Neue', Helvetica, Arial-Unicode, Arial, Sans-serif">Created by Berkay Sargın</text><text x="0" y="120" fill="#000000" font-size="5px" font-weight="bold" font-family="'Helvetica Neue', Helvetica, Arial-Unicode, Arial, Sans-serif">from the Noun Project</text></svg>